HIERARCHY
ROOT Hips
{
	OFFSET 0.000000 0.000000 0.000000
	CHANNELS 6 Xposition Yposition Zposition Zrotation Yrotation Xrotation 
	JOINT LHipJoint
	{
		OFFSET 0.000000 0.000000 0.000000
		CHANNELS 3 Zrotation Yrotation Xrotation
		JOINT LeftUpLeg
		{
			OFFSET 1.363060 -1.794630 0.839290
			CHANNELS 3 Zrotation Yrotation Xrotation
			JOINT LeftLeg
			{
				OFFSET 2.448110 -6.726130 0.000000
				CHANNELS 3 Zrotation Yrotation Xrotation
				JOINT LeftFoot
				{
					OFFSET 2.562200 -7.039590 0.000000
					CHANNELS 3 Zrotation Yrotation Xrotation
					JOINT LeftToeBase
					{
						OFFSET 0.157640 -0.433110 2.322550
						CHANNELS 3 Zrotation Yrotation Xrotation
						End Site
						{
							OFFSET 0.000000 0.000000 0.000000
						}
					}
				}
			}
		}
	}
	JOINT RHipJoint
	{
		OFFSET 0.000000 0.000000 0.000000
		CHANNELS 3 Zrotation Yrotation Xrotation
		JOINT RightUpLeg
		{
			OFFSET -1.305520 -1.794630 0.839290
			CHANNELS 3 Zrotation Yrotation Xrotation
			JOINT RightLeg
			{
				OFFSET -2.542530 -6.985550 0.000000
				CHANNELS 3 Zrotation Yrotation Xrotation
				JOINT RightFoot
				{
					OFFSET -2.568260 -7.056230 0.000000
					CHANNELS 3 Zrotation Yrotation Xrotation
					JOINT RightToeBase
					{
						OFFSET -0.164730 -0.452590 2.363150
						CHANNELS 3 Zrotation Yrotation Xrotation
						End Site
						{
							OFFSET 0.000000 0.000000 0.000000
						}
					}
				}
			}
		}
	}
	JOINT LowerBack
	{
		OFFSET 0.000000 0.000000 0.000000
		CHANNELS 3 Zrotation Yrotation Xrotation
		JOINT Spine
		{
			OFFSET 0.028270 2.035590 -0.193380
			CHANNELS 3 Zrotation Yrotation Xrotation
			JOINT Spine1
			{
				OFFSET 0.056720 2.048850 -0.042750
				CHANNELS 3 Zrotation Yrotation Xrotation
				JOINT Neck
				{
					OFFSET 0.000000 0.000000 0.000000
					CHANNELS 3 Zrotation Yrotation Xrotation
					JOINT Neck1
					{
						OFFSET -0.054170 1.746240 0.172020
						CHANNELS 3 Zrotation Yrotation Xrotation
						JOINT Head
						{
							OFFSET 0.104070 1.761360 -0.123970
							CHANNELS 3 Zrotation Yrotation Xrotation
							End Site
							{
								OFFSET 0.000000 0.000000 0.000000
							}
						}
					}
				}
				JOINT LeftShoulder
				{
					OFFSET 0.000000 0.000000 0.000000
					CHANNELS 3 Zrotation Yrotation Xrotation
					JOINT LeftArm
					{
						OFFSET 3.362410 1.200890 -0.311210
						CHANNELS 3 Zrotation Yrotation Xrotation
						JOINT LeftForeArm
						{
							OFFSET 4.983000 -0.000000 -0.000000
							CHANNELS 3 Zrotation Yrotation Xrotation
							JOINT LeftHand
							{
								OFFSET 3.483560 -0.000000 -0.000000
								CHANNELS 3 Zrotation Yrotation Xrotation
								JOINT LeftFingerBase
								{
									OFFSET 0.000000 0.000000 0.000000
									CHANNELS 3 Zrotation Yrotation Xrotation
									JOINT LeftHandIndex1
									{
										OFFSET 0.715260 -0.000000 -0.000000
										CHANNELS 3 Zrotation Yrotation Xrotation
										End Site
										{
											OFFSET 0.000000 0.000000 0.000000
										}
									}
								}
								JOINT LThumb
								{
									OFFSET 0.000000 0.000000 0.000000
									CHANNELS 3 Zrotation Yrotation Xrotation
									End Site
									{
										OFFSET 0.000000 0.000000 0.000000
									}
								}
							}
						}
					}
				}
				JOINT RightShoulder
				{
					OFFSET 0.000000 0.000000 0.000000
					CHANNELS 3 Zrotation Yrotation Xrotation
					JOINT RightArm
					{
						OFFSET -3.136600 1.374050 -0.404650
						CHANNELS 3 Zrotation Yrotation Xrotation
						JOINT RightForeArm
						{
							OFFSET -5.241900 -0.000000 -0.000000
							CHANNELS 3 Zrotation Yrotation Xrotation
							JOINT RightHand
							{
								OFFSET -3.444170 -0.000000 -0.000000
								CHANNELS 3 Zrotation Yrotation Xrotation
								JOINT RightFingerBase
								{
									OFFSET 0.000000 0.000000 0.000000
									CHANNELS 3 Zrotation Yrotation Xrotation
									JOINT RightHandIndex1
									{
										OFFSET -0.622530 -0.000000 -0.000000
										CHANNELS 3 Zrotation Yrotation Xrotation
										End Site
										{
											OFFSET 0.000000 0.000000 0.000000
										}
									}
								}
								JOINT RThumb
								{
									OFFSET 0.000000 0.000000 0.000000
									CHANNELS 3 Zrotation Yrotation Xrotation
									End Site
									{
										OFFSET 0.000000 0.000000 0.000000
									}
								}
							}
						}
					}
				}
			}
		}
	}
}
MOTION
Frames: 6
Frame Time: 0.008333
3.866370 16.280710 -2.110701 101.722644 -71.513207 -108.125542 -3.238015 -4.839949 1.090802 -2.851363 -9.623775 -126.202999 -1.893992 4.067850 44.659194 1.796144 10.057856 9.500814 4.122300 -0.000000 -49.297500 14.196387 4.179633 -7.314127 -8.699772 -0.078843 -6.226693 -0.148813 -4.495872 47.583577 -2.555845 -10.595433 -21.534980 2.335600 0.000000 -60.761400 -13.432144 0.019002 10.374738 -3.024139 0.594598 -2.133101 -5.010836 0.606700 -4.402602 6.261872 -4.737507 -5.745074 -2.462941 -0.203566 0.315530 0.000000 0.000000 0.000000 0.005242 4.152708 1.128060 -47.887604 30.375556 44.722963 -1.450870 -68.118562 -0.022626 -7.593804 -9.987038 0.668417 0.089718 -0.041095 -0.000000 0.000000 0.000000 0.000000 0.000000 0.000000 0.000000 8.663316 1.954666 0.590859 60.261798 -17.356756 29.469240 0.658590 66.944051 -0.015435 -8.838021 5.663952 -0.456976 0.109624 -0.184931 0.000000 0.000000 0.000000 0.000000 0.000000 0.000000 0.000000 
3.892573 16.276004 -2.124814 101.435253 -71.580032 -107.976903 -3.271838 -4.945178 1.643569 -1.907710 -8.639855 -120.972930 -2.869819 2.634860 32.315788 1.406123 9.070173 12.485899 4.347400 0.000000 -51.503400 14.331319 4.328822 -7.632780 -8.742648 -0.065087 -5.664614 -0.139568 -4.573746 47.424724 -2.580125 -10.723440 -21.484138 2.339500 0.000000 -60.415800 -13.668671 0.219707 10.363999 -3.088345 0.798207 -2.141729 -5.062994 0.812727 -4.405908 6.423388 -5.069071 -5.831193 -2.445811 -0.201519 0.290727 0.000000 0.000000 0.000000 -0.044127 4.935385 0.923822 -48.228708 31.509388 44.476486 -1.423956 -68.756670 -0.024165 -7.692480 -10.070656 0.683216 0.096108 -0.041313 -0.000000 0.000000 0.000000 0.000000 0.000000 0.000000 0.000000 8.822442 1.748549 0.512128 60.566183 -18.441052 29.157963 0.661022 67.244929 -0.015108 -8.897250 5.624716 -0.456766 0.111115 -0.182179 0.000000 0.000000 0.000000 0.000000 0.000000 0.000000 0.000000 
3.918233 16.277134 -2.141373 101.851170 -71.320933 -108.929124 -3.078428 -5.294102 1.909334 -0.525215 -6.895283 -114.320428 -3.466484 0.949927 19.433356 1.098260 8.650551 15.848017 4.670400 0.000000 -52.414601 14.475789 4.458808 -7.906765 -8.997110 0.146679 -4.580682 -0.143811 -4.656534 47.033261 -2.579019 -10.713182 -21.315637 2.289400 -0.000000 -60.214399 -14.148255 0.523672 10.548784 -3.218598 1.095957 -2.098967 -5.120703 1.116384 -4.411342 6.609935 -5.424338 -5.861978 -2.431013 -0.200280 0.277584 0.000000 0.000000 0.000000 -0.099987 5.750759 0.674854 -48.514110 32.740547 44.112679 -1.396960 -69.426841 -0.026240 -7.823144 -10.148607 0.700583 0.103862 -0.043041 -0.000000 0.000000 0.000000 0.000000 0.000000 0.000000 0.000000 9.042542 1.556601 0.430363 60.845284 -19.381474 29.011627 0.664434 67.437066 -0.014686 -8.901271 5.594053 -0.454361 0.111621 -0.179341 0.000000 0.000000 0.000000 0.000000 0.000000 0.000000 0.000000 
3.939982 16.283695 -2.155294 103.376813 -70.764445 -111.543388 -2.736136 -5.871786 1.667239 1.072371 -4.495986 -106.746190 -3.528770 -0.500819 7.847333 0.894090 8.579614 19.156273 4.974300 0.000000 -51.260700 14.588020 4.497897 -8.067060 -9.261910 0.725745 -2.832583 -0.149306 -4.747119 46.367747 -2.563016 -10.605628 -21.028313 2.196100 -0.000000 -60.103900 -14.748343 0.967741 11.014211 -3.385216 1.525671 -1.985772 -5.168428 1.556213 -4.421260 6.775443 -5.784457 -5.833139 -2.410849 -0.199289 0.277531 0.000000 0.000000 0.000000 -0.196296 6.666965 0.376285 -48.820222 34.064610 43.597427 -1.373436 -70.054268 -0.028749 -7.973068 -10.218100 0.719222 0.112599 -0.046090 -0.000000 0.000000 0.000000 0.000000 0.000000 0.000000 0.000000 9.236998 1.419032 0.341391 61.059186 -20.161438 29.091510 0.668187 67.519623 -0.014174 -8.840914 5.579701 -0.449865 0.111006 -0.176578 0.000000 0.000000 0.000000 0.000000 0.000000 0.000000 0.000000 
3.954466 16.295888 -2.161508 105.911593 -70.059659 -115.608311 -2.435387 -6.478008 0.963112 1.591930 -2.089983 -99.724703 -3.450445 -1.307382 -0.582142 0.593971 7.283337 21.687033 4.458200 -0.000000 -48.748300 14.642198 4.413642 -8.085531 -9.307877 1.655126 -0.580257 -0.136239 -4.835268 45.441324 -2.542565 -10.445904 -20.635971 2.075700 -0.000000 -60.016600 -15.253934 1.522418 11.663208 -3.529670 2.062589 -1.834712 -5.194265 2.105222 -4.433104 6.879122 -6.128296 -5.747615 -2.380744 -0.198213 0.292523 0.000000 0.000000 0.000000 -0.376461 7.713818 0.033817 -49.210011 35.481962 42.892242 -1.357688 -70.571268 -0.031395 -8.136083 -10.275292 0.738246 0.121358 -0.049733 -0.000000 0.000000 0.000000 0.000000 0.000000 0.000000 0.000000 9.336144 1.332270 0.236821 61.150512 -20.800352 29.442830 0.672010 67.511065 -0.013509 -8.709236 5.589699 -0.443778 0.109416 -0.173757 0.000000 0.000000 0.000000 0.000000 0.000000 0.000000 0.000000 
3.960232 16.314833 -2.160578 108.699572 -69.300273 -120.037140 -2.229261 -6.925370 0.073253 -0.015689 -0.057050 -94.493567 -3.639171 -1.601602 -5.592768 0.081721 3.545008 23.209375 2.495000 0.000001 -46.695600 14.667206 4.251454 -7.970603 -9.238835 2.615220 1.715053 -0.105859 -4.892875 44.350330 -2.499876 -10.161389 -20.150329 1.922700 0.000000 -60.033400 -15.610031 2.084204 12.253998 -3.630945 2.610068 -1.702911 -5.196215 2.664172 -4.434512 6.929614 -6.453647 -5.615926 -2.344027 -0.197341 0.323187 0.000000 0.000000 0.000000 -0.644201 8.837589 -0.335372 -49.694983 37.006461 41.935496 -1.354297 -70.944691 -0.033844 -8.318056 -10.312965 0.757583 0.128940 -0.053564 -0.000000 0.000000 0.000000 0.000000 0.000000 0.000000 0.000000 9.364064 1.235396 0.106430 61.081007 -21.315248 30.077540 0.674812 67.435284 -0.012628 -8.508982 5.630922 -0.436396 0.107111 -0.170602 0.000000 0.000000 0.000000 0.000000 0.000000 0.000000 0.000000 
